<svg width="22" height="22" viewBox="0 0 22 22" fill="none" xmlns="http://www.w3.org/2000/svg">
<path d="M3.75 13.334H4.5C4.49992 13.1881 4.45732 13.0455 4.37739 12.9234C4.29746 12.8014 4.18369 12.7053 4.05 12.647L3.75 13.334ZM17.75 13.334L17.45 12.647C17.3163 12.7053 17.2025 12.8014 17.1226 12.9234C17.0427 13.0455 17.0001 13.1881 17 13.334H17.75ZM14.5 5.75C14.5 5.94891 14.579 6.13968 14.7197 6.28033C14.8603 6.42098 15.0511 6.5 15.25 6.5C15.4489 6.5 15.6397 6.42098 15.7803 6.28033C15.921 6.13968 16 5.94891 16 5.75H14.5ZM5.5 5.75C5.5 5.94891 5.57902 6.13968 5.71967 6.28033C5.86032 6.42098 6.05109 6.5 6.25 6.5C6.44891 6.5 6.63968 6.42098 6.78033 6.28033C6.92098 6.13968 7 5.94891 7 5.75H5.5ZM5.75 3C4.22501 3 2.76247 3.6058 1.68414 4.68414C0.605802 5.76247 1.2781e-08 7.22501 1.2781e-08 8.75H1.5C1.5 7.62283 1.94777 6.54183 2.7448 5.7448C3.54183 4.94777 4.62283 4.5 5.75 4.5V3ZM15.75 4.5C16.8772 4.5 17.9582 4.94777 18.7552 5.7448C19.5522 6.54183 20 7.62283 20 8.75H21.5C21.5 7.22501 20.8942 5.76247 19.8159 4.68414C18.7375 3.6058 17.275 3 15.75 3V4.5ZM13.75 20H7.75V21.5H13.75V20ZM7.75 20C6.786 20 6.138 19.998 5.655 19.933C5.194 19.871 4.996 19.764 4.866 19.633L3.806 20.695C4.261 21.15 4.828 21.335 5.456 21.42C6.062 21.502 6.828 21.5 7.75 21.5V20ZM3 16.75C3 17.672 2.998 18.438 3.08 19.044C3.164 19.672 3.35 20.239 3.805 20.694L4.866 19.634C4.736 19.504 4.629 19.306 4.566 18.844C4.502 18.362 4.5 17.714 4.5 16.75H3ZM17 16.75C17 17.714 16.998 18.362 16.933 18.845C16.871 19.306 16.764 19.504 16.633 19.634L17.695 20.694C18.15 20.239 18.335 19.672 18.42 19.044C18.502 18.438 18.5 17.672 18.5 16.75H17ZM13.75 21.5C14.672 21.5 15.438 21.502 16.044 21.42C16.672 21.336 17.24 21.15 17.695 20.694L16.634 19.634C16.504 19.764 16.306 19.871 15.844 19.934C15.362 19.998 14.714 20 13.75 20V21.5ZM5.75 4.5C5.964 4.5 6.173 4.516 6.378 4.546L6.597 3.062C6.31656 3.02063 6.03347 2.99991 5.75 3V4.5ZM10.75 0C9.65277 1.13427e-06 8.5831 0.343647 7.69117 0.982685C6.79925 1.62172 6.12986 2.52406 5.777 3.563L7.197 4.045C7.44916 3.30281 7.92745 2.65823 8.56469 2.20178C9.20194 1.74532 9.96614 1.49991 10.75 1.5V0ZM5.777 3.563C5.59303 4.1064 5.49945 4.6763 5.5 5.25H7C7 4.827 7.07 4.422 7.198 4.045L5.777 3.563ZM15.75 3C15.463 3 15.18 3.021 14.903 3.062L15.123 4.546C15.3306 4.51535 15.5402 4.49998 15.75 4.5V3ZM10.75 1.5C11.5337 1.50012 12.2977 1.74562 12.9347 2.20207C13.5718 2.65851 14.0499 3.30297 14.302 4.045L15.722 3.563C15.3692 2.52422 14.7 1.622 13.8082 0.982976C12.9165 0.343952 11.8471 0.000210024 10.75 0V1.5ZM14.302 4.045C14.43 4.422 14.5 4.827 14.5 5.25H16C16 4.661 15.902 4.094 15.722 3.563L14.303 4.045H14.302ZM4.5 16.75V13.334H3V16.75H4.5ZM4.05 12.647C3.29188 12.316 2.64681 11.771 2.19386 11.0788C1.74092 10.3866 1.49978 9.57723 1.5 8.75H1.2781e-08C-7.45718e-05 9.86897 0.326285 10.9637 0.939084 11.8999C1.55188 12.8362 2.4245 13.5733 3.45 14.021L4.05 12.647ZM17 13.334V16.75H18.5V13.334H17ZM20 8.75C20.0002 9.57723 19.7591 10.3866 19.3061 11.0788C18.8532 11.771 18.2081 12.316 17.45 12.647L18.05 14.021C19.0755 13.5733 19.9481 12.8362 20.5609 11.8999C21.1737 10.9637 21.5001 9.86897 21.5 8.75H20ZM14.5 5.25V5.75H16V5.25H14.5ZM5.5 5.25V5.75H7V5.25H5.5Z" fill="#1F1711"/>
<path opacity="0.7" d="M10.75 8.74507L10.231 9.28707C10.3706 9.42092 10.5566 9.49565 10.75 9.49565C10.9434 9.49565 11.1294 9.42092 11.269 9.28707L10.75 8.74507ZM10.236 11.8141C9.819 11.5081 9.358 11.1241 9.009 10.7221C8.641 10.2961 8.5 9.96507 8.5 9.75007H7C7 10.5201 7.441 11.2011 7.875 11.7031C8.328 12.2271 8.889 12.6861 9.349 13.0231L10.236 11.8141ZM8.5 9.75007C8.5 9.17407 8.763 8.92407 8.992 8.84307C9.242 8.75507 9.706 8.78307 10.232 9.28707L11.269 8.20307C10.444 7.41307 9.408 7.10807 8.496 7.42807C7.562 7.75507 7 8.65307 7 9.75007H8.5ZM12.15 13.0241C12.61 12.6861 13.172 12.2271 13.625 11.7031C14.059 11.2011 14.5 10.5201 14.5 9.75007H13C13 9.96507 12.859 10.2961 12.49 10.7221C12.142 11.1251 11.681 11.5081 11.264 11.8141L12.151 13.0241H12.15ZM14.5 9.75007C14.5 8.65307 13.937 7.75507 13.004 7.42807C12.092 7.10807 11.056 7.41407 10.231 8.20307L11.269 9.28707C11.794 8.78307 12.258 8.75507 12.509 8.84307C12.737 8.92307 13 9.17407 13 9.75007H14.5ZM9.35 13.0241C9.718 13.2941 10.132 13.6311 10.75 13.6311V12.1311C10.726 12.1311 10.71 12.1311 10.656 12.1021C10.51 12.0151 10.3697 11.9189 10.236 11.8141L9.349 13.0241H9.35ZM11.264 11.8141C11.1303 11.9189 10.99 12.0151 10.844 12.1021C10.79 12.1311 10.774 12.1311 10.75 12.1311V13.6311C11.368 13.6311 11.782 13.2941 12.15 13.0241L11.264 11.8141Z" fill="#1F1711"/>
<path opacity="0.7" d="M3.75 16.75H17.75" stroke="#1F1711" stroke-width="1.5" stroke-linecap="round" stroke-linejoin="round"/>
</svg>
